<svg width="80" height="80" viewBox="0 0 80 80" fill="none" xmlns="http://www.w3.org/2000/svg">
<circle cx="40" cy="40" r="24.018" fill="#C7DFE8" fill-opacity="0.9"/>
<path d="M62.3126 31.063C63.4117 33.8188 64.018 36.8252 64.018 39.9736C64.018 53.253 53.2648 64.018 40 64.018C26.7352 64.018 15.982 53.253 15.982 39.9736C15.982 39.0521 16.0355 38.1429 16.1363 37.2484C19.6725 46.1168 28.33 52.3836 38.4505 52.3836C50.7952 52.3836 60.9613 43.0598 62.3126 31.063Z" fill="#A6BEC7" fill-opacity="0.8"/>
<circle cx="33.018" cy="29.1081" r="7.81982" fill="#FEFEFE"/>
<path fill-rule="evenodd" clip-rule="evenodd" d="M40 9C57.1208 9 71 22.8792 71 40C71 57.1208 57.1208 71 40 71C22.8792 71 9 57.1208 9 40C9 22.8792 22.8792 9 40 9ZM40 15.982C26.7352 15.982 15.982 26.7352 15.982 40C15.982 53.2648 26.7352 64.018 40 64.018C53.2648 64.018 64.018 53.2648 64.018 40C64.018 26.7352 53.2648 15.982 40 15.982Z" fill="#657F8D"/>
<path fill-rule="evenodd" clip-rule="evenodd" d="M40 0C62.0914 0 80 17.9086 80 40C80 62.0914 62.0914 80 40 80C17.9086 80 0 62.0914 0 40C0 17.9086 17.9086 0 40 0ZM40 9.00901C22.8841 9.00901 9.00901 22.8841 9.00901 40C9.00901 57.1159 22.8841 70.991 40 70.991C57.1159 70.991 70.991 57.1159 70.991 40C70.991 22.8841 57.1159 9.00901 40 9.00901Z" fill="white" fill-opacity="0.2"/>
</svg>
