<svg width="62" height="62" viewBox="0 0 62 62" fill="none" xmlns="http://www.w3.org/2000/svg">
<circle cx="31" cy="31" r="24.018" fill="#C7DFE8" fill-opacity="0.9"/>
<path d="M53.3126 22.063C54.4117 24.8188 55.018 27.8252 55.018 30.9736C55.018 44.253 44.2648 55.018 31 55.018C17.7352 55.018 6.98199 44.253 6.98199 30.9736C6.98199 30.0521 7.03553 29.1429 7.13634 28.2484C10.6725 37.1168 19.33 43.3836 29.4505 43.3836C41.7952 43.3836 51.9613 34.0598 53.3126 22.063Z" fill="#A6BEC7" fill-opacity="0.8"/>
<circle cx="24.018" cy="20.1081" r="7.81982" fill="#FEFEFE"/>
<path fill-rule="evenodd" clip-rule="evenodd" d="M31 0C48.1208 0 62 13.8792 62 31C62 48.1208 48.1208 62 31 62C13.8792 62 0 48.1208 0 31C0 13.8792 13.8792 0 31 0ZM31 6.98198C17.7352 6.98198 6.98198 17.7352 6.98198 31C6.98198 44.2648 17.7352 55.018 31 55.018C44.2648 55.018 55.018 44.2648 55.018 31C55.018 17.7352 44.2648 6.98198 31 6.98198Z" fill="#657F8D"/>
</svg>
