<svg width="800" height="303" viewBox="0 0 800 303" fill="none" xmlns="http://www.w3.org/2000/svg">
<path fill-rule="evenodd" clip-rule="evenodd" d="M115.294 9.4678e-05C142.377 0.0466518 173.622 5.7729 197.169 29.8566C210.954 43.9557 216.606 61.0217 218.294 77.3508C231.995 68.6726 248.02 63.2408 265.347 62.2015C294.185 60.4716 320.867 71.2443 340.13 89.8206C340.148 83.2464 340.168 76.6874 340.179 70.1469L340.162 68.8219C340.085 65.5235 339.748 60.6996 339.566 52.7897C339.479 49.0402 339.454 44.876 339.66 41.1817C339.762 39.354 339.942 37.2148 340.304 35.0894C340.555 33.6132 341.277 29.5058 343.712 25.4465L343.713 25.4453C348.765 17.0225 357.313 14.0656 360.28 13.0982C364.504 11.7212 368.937 10.9863 372.445 10.5401C376.111 10.0737 379.709 9.81089 382.532 9.63475C385.241 9.4657 386.675 9.39852 387.656 9.32943C390.664 8.85597 394.607 8.46645 398.778 8.63745C402.604 8.79436 410.191 9.509 417.033 14.2487L417.693 14.7191C427.903 22.2438 428.749 33.6003 428.977 35.2957L429.148 36.6384C430.829 50.5888 429.726 66.729 429.695 76.4761V76.4785C429.662 86.5087 429.611 96.4605 429.596 106.364C432.413 101.217 435.659 96.2814 439.339 91.6301C456.42 70.0442 479.448 56.7781 507.027 53.3992C527.726 50.5803 550.302 55.0379 568.372 66.3074C572.423 68.8337 576.122 71.6047 579.488 74.5911C580.447 71.083 582.146 67.3651 584.989 63.9238C589.19 58.8384 594.373 56.2803 598.071 54.9446C601.845 53.5816 605.512 52.9761 608.295 52.6588C612.58 52.1705 619.368 52.0949 620.267 52.0777C624.24 51.7925 633.371 51.1491 642.411 51.2159C647.03 51.2501 652.278 51.4687 657.104 52.1802C659.514 52.5356 662.33 53.0863 665.149 54.0145C667.592 54.8187 671.661 56.4173 675.418 59.7272L675.781 60.0525L675.786 60.0572C681.151 64.9745 683.025 70.9161 683.762 74.0878C684.459 77.0909 684.631 79.8311 684.679 81.5781L684.693 82.2642V82.2677C684.761 86.9278 684.295 91.3437 683.86 94.8471C683.419 98.395 683.088 100.528 682.829 102.895L682.723 103.928C681.564 115.95 681.117 127.418 682.053 138.425L682.215 140.219C682.613 144.35 683.153 148.072 684.057 151.189C684.554 152.905 685.024 153.933 685.33 154.501C685.582 154.503 685.885 154.491 686.234 154.452C688.469 154.201 690.723 153.393 693.519 147.285C696.655 140.436 698.246 131.265 699.659 121.237C700.928 112.224 701.979 103.233 702.764 94.2471L702.765 94.2459C702.831 93.485 702.862 92.5455 702.975 90.2567C703.069 88.3311 703.213 85.7588 703.524 83.0823C703.825 80.4883 704.356 77.0968 705.455 73.6351C706.464 70.4558 708.576 65.1662 713.3 60.708C718.229 56.0566 724.103 54.6798 725.94 54.2538C728.763 53.5989 731.651 53.2698 734.111 53.0809C739.114 52.6967 744.842 52.7169 750.06 52.871C759.307 53.1443 768.7 53.9007 773.429 54.3351L775.157 54.5002L780 54.9776L784.146 57.5274C784.869 57.9721 789.75 60.69 793.551 65.2724L794.035 65.8772C798.911 72.1525 799.606 79.3728 799.825 81.9695C800.147 85.8087 799.971 89.6841 799.728 92.7547C799.475 95.9515 799.082 99.0558 798.752 101.498C798.368 104.336 798.169 105.634 798.068 106.578V106.582C796.206 124.005 792.947 151.767 788.248 179.085C783.7 205.525 777.35 234.501 768.437 252.537L768.436 252.536C762.721 264.099 754.842 273.239 745.472 280.803L745.069 281.128L744.649 281.434C740.379 284.547 735.573 287.737 730.1 290.521L730.101 290.523C697.871 306.93 659.732 304.374 629.756 294.501C628.732 294.164 623.601 292.663 619.272 290.652C615.915 289.093 606.029 284.263 602.052 273.168C599.557 266.208 600.62 259.477 601.174 256.51C601.889 252.673 603.072 248.915 604.174 245.834C606.403 239.602 609.199 233.699 610.495 231.015C611.719 228.479 613.725 225.048 616.868 221.872C617.208 221.527 617.575 221.177 617.964 220.823C611.798 215.902 606.873 209.993 602.904 203.761C603.45 212.149 600.152 218.998 596.9 223.4L596.899 223.398C588.964 234.141 576.241 241.614 565.708 246.38C554.65 251.383 542.369 255.018 532.232 256.282C505.485 259.617 474.826 255.206 450.585 236.252C450.067 235.847 449.555 235.436 449.048 235.023C447.639 238.568 445.468 242.288 442.096 245.628C434.346 253.303 423.619 255.455 418.347 256.308C411.818 257.365 405.373 257.534 401.632 257.588L400.256 257.608L398.888 257.449C392.962 256.761 385.721 255.669 378.107 252.702L378.104 252.701C365.221 247.68 354.618 238.726 348.499 224.752C348.367 224.452 348.24 224.15 348.113 223.85C331.176 244.599 305.948 258.448 277.172 260.152L275.886 260.221C225.107 262.579 181.433 226.298 173.437 177.244C160.151 186.072 144.805 192.128 128.412 195.722L128.411 195.723C125.156 196.436 121.655 196.832 119.118 197.109C117.511 197.284 116.114 197.43 114.807 197.578C114.821 199.337 114.855 201.225 114.908 203.205C115.126 211.25 115.784 223.288 115.787 227.742V228.838L115.675 229.927C115.614 230.515 115.301 237.653 112.298 243.958L112.295 243.966C108.258 252.434 101.031 257.56 93.4182 259.671L93.4087 259.674C87.4019 261.337 76.4591 263.065 66.3956 263.874C61.2245 264.29 55.588 264.523 50.3953 264.271C46.3612 264.075 38.531 263.503 31.8757 259.704L27.4763 257.193L24.6942 252.96C20.0225 245.852 18.9545 238.329 18.4994 234.408L18.5006 234.406C17.1502 222.794 17.4822 208.312 17.1602 199.976L17.1591 199.962V199.948L14.3617 124.871V124.85C13.7824 108.85 13.8815 95.2206 12.3494 81.5428C12.2169 80.3606 11.6412 78.7331 8.67614 73.2131C6.38255 68.9433 1.47162 60.4157 0.213259 50.1573C-0.69649 42.7485 1.23717 34.4 7.31341 27.8113C12.5364 22.1464 19.0031 19.2737 22.8694 17.7782C26.5798 16.343 31.5269 14.9339 32.7669 14.5375L35.0904 13.8043C59.1144 6.31063 83.5097 1.58823 109.012 0.176921L109.031 0.175742H109.05C111.015 0.0705477 113.109 -0.00301001 115.288 9.4678e-05H115.294Z" fill="#442714"/>
<path d="M621.394 73.1736C628.941 72.6316 656.099 70.6725 661.512 75.6302C663.261 77.2333 663.537 80.3428 663.57 82.5724C663.662 88.905 662.305 95.5804 661.695 101.899C660.469 114.614 659.92 127.468 661.004 140.216C661.872 150.41 663.744 164.566 672.281 171.415C676.87 175.095 682.859 176.086 688.588 175.444C713.044 172.702 717.837 143.635 720.577 124.182C721.893 114.843 722.987 105.48 723.808 96.085C724.261 90.9064 723.889 79.7586 727.799 76.0696C732.176 71.9388 766.025 74.825 773.081 75.5215C774.589 76.4486 776.147 77.3793 777.29 78.7579C780.7 82.8694 777.631 99.0039 777.062 104.337C773.376 138.84 764.247 213.33 749.497 243.176C745.313 251.643 739.521 258.456 732.203 264.364C728.463 267.091 724.647 269.594 720.516 271.696C694.945 284.714 663.042 283.223 636.364 274.436C632.043 273.013 623.648 270.81 621.937 266.038C619.954 260.505 627.064 245.282 629.518 240.198C630.672 237.808 632.669 235.147 635.524 234.774C639.174 234.297 644.221 236.987 647.541 238.242C659.733 242.852 673.872 245.523 686.477 240.8C698.101 236.443 703.504 226.718 708.128 215.974C709.463 212.871 713.51 204.592 712.22 201.388L711.352 201.058C706.065 203.683 702.15 208.429 696.817 210.969C691.767 213.375 686.689 215.357 681.136 216.218C665.384 218.66 644.977 214.699 632.088 205.046C614.274 191.704 608.043 162.824 604.947 141.816C603.18 129.823 602.908 117.755 601.804 105.705C601.118 98.2301 599.341 90.0385 599.517 82.564C599.561 80.7231 600.085 78.8182 601.274 77.3793C605.085 72.7608 615.857 73.4452 621.394 73.1736Z" fill="#F5B85A"/>
<path d="M390.214 30.3159C394.42 29.5699 401.554 29.0665 405.161 31.7246C407.336 33.3277 407.706 35.6297 408.042 38.1237C409.71 50.4593 408.61 63.9514 408.57 76.4078C408.49 100.66 408.292 124.942 408.805 149.188C409.008 158.802 408.543 169.15 410.291 178.587C412.685 191.503 419.29 184.482 425.36 189.742C430.199 193.935 430.221 206.101 430.429 212.017C430.627 217.668 431.662 226.228 427.231 230.618C421.978 235.82 408.428 236.361 401.324 236.465C395.946 235.841 390.844 234.992 385.776 233.017C377.484 229.786 371.458 224.52 367.849 216.277C364.741 209.183 363.546 201.381 362.898 193.717C361.707 179.62 361.681 165.233 361.47 151.088C361.069 124.076 361.259 97.1873 361.304 70.1814C361.314 63.7293 359.469 40.2458 361.829 36.3105C365.05 30.9388 384.564 30.8398 390.214 30.3159Z" fill="#F5B85A"/>
<path d="M115.258 21.1252C139.852 21.1675 164.259 26.416 182.063 44.6252C194.519 57.3641 198.131 74.2208 197.732 91.5793C196.675 137.631 167.188 165.595 123.889 175.087C115.886 176.841 100.89 176.328 94.9979 181.933C92.236 187.824 94.655 219.015 94.661 227.757C94.416 230.13 94.268 232.688 93.2264 234.875C92.1268 237.182 90.2095 238.64 87.7723 239.316C79.3272 241.654 49.8402 245.635 42.3475 241.358C40.5236 238.582 39.8623 235.238 39.4833 231.972C38.2388 221.277 38.6849 209.945 38.2684 199.161L35.4716 124.085C34.9344 109.25 34.9928 93.9235 33.3427 79.1917C32.0329 67.4983 22.557 58.8227 21.1796 47.5833C20.9333 45.5782 21.4593 43.6294 22.8427 42.1301C26.6233 38.0296 34.0014 36.3204 39.1981 34.6594C62.4377 27.2308 85.814 22.6182 110.179 21.2698C111.87 21.1792 113.563 21.1228 115.258 21.1252ZM127.349 67.5129C119.354 65.0914 110.03 65.2052 101.807 65.9319C98.1306 66.2421 90.8324 66.1826 88.3807 69.4563C86.3166 72.2134 88.9127 123.932 90.4784 129.291C90.9649 130.957 91.3842 131.789 92.951 132.587C99.2272 135.786 118.043 129.605 124.348 127.031L125.031 126.746C134.243 121.873 140.358 115.403 143.467 105.308C146.004 97.0644 146.066 86.5826 142.019 78.8196C138.947 72.9255 133.584 69.4021 127.349 67.5129Z" fill="#F5B85A"/>
<path d="M266.612 83.2874C309.834 80.6946 346.9 113.789 349.201 157.028C351.502 200.266 318.158 237.108 274.905 239.118C232.064 241.108 195.647 208.148 193.367 165.322C191.088 122.494 223.801 85.8549 266.612 83.2874ZM272.083 119.598C263.607 120.653 256.932 123.601 251.617 130.594C243.671 141.049 241.246 157.047 243.247 169.779C244.717 179.124 248.725 188.784 256.76 194.323C261.722 197.743 266.98 198.683 272.888 198.815C281.355 198.075 287.6 195.459 293.148 188.693C301.219 178.853 303.47 165.253 302.022 152.897C300.846 142.852 297.381 131.201 289.058 124.788C284.1 120.97 278.254 119.538 272.083 119.598Z" fill="#F5B85A"/>
<path d="M509.723 74.3506C525.786 72.1247 543.437 75.6512 557.194 84.2314C572.031 93.4841 580.611 107.096 584.507 123.933C586.293 131.652 590.023 153.857 585.411 160.372C584.474 161.694 581.718 162.205 580.182 162.488C573.331 163.748 566.096 163.825 559.151 164.523C544.684 165.979 530.337 167.64 515.806 168.436C508.293 168.846 496.082 168.186 489.133 169.668C487.918 169.928 487.277 170.707 486.889 171.88C486.36 173.476 487.005 175.523 487.668 176.994C491.509 185.519 499.839 192.095 508.433 195.341C522.523 200.663 535.93 198.708 549.146 192.216C553.784 189.938 558.14 187.164 562.853 185.035L563.531 184.734C569.296 187.781 573.693 193.363 578.091 198.085C579.649 199.969 581.322 201.877 581.737 204.371C582.129 206.729 581.301 208.963 579.91 210.845C570.52 223.563 544.971 233.405 529.617 235.319C506.673 238.18 482.178 234.14 463.597 219.611C448.645 207.92 439.876 191.882 437.554 173.081C434.6 149.162 440.89 123.715 455.905 104.736C469.648 87.3684 487.74 77.0123 509.723 74.3506ZM531.332 112.861C526.421 109.732 520.902 108.807 515.17 109.344C505.912 110.458 498.148 113.757 492.173 121.238C489.688 124.349 485.577 130.303 485.833 134.347C485.923 135.784 486.544 136.934 487.791 137.688C491.843 140.144 507.849 137.441 513.389 137.421C518.626 137.043 539.134 137.25 541.984 133.707C542.917 132.549 542.964 130.661 542.697 129.249C541.524 123.009 536.651 116.252 531.332 112.861Z" fill="#F5B85A"/>
</svg>
